<svg height="512pt" viewBox="0 0 512 512" width="512pt" xmlns="http://www.w3.org/2000/svg" xmlns:xlink="http://www.w3.org/1999/xlink"><linearGradient id="a" gradientTransform="matrix(1 0 0 -1 0 -12310)" gradientUnits="userSpaceOnUse" x1="0" x2="512" y1="-12566" y2="-12566"><stop offset="0" stop-color="#00f38d"/><stop offset="1" stop-color="#009eff"/></linearGradient><path d="m512 256c0 141.386719-114.613281 256-256 256s-256-114.613281-256-256 114.613281-256 256-256 256 114.613281 256 256zm0 0" fill="url(#a)"/><g fill="#fff"><path d="m287.230469 192.777344v-30h-40l8.859375-59.894532c1.226562-8.183593 6.84375-16.882812 14.828125-16.882812 8.082031 0 14.660156 6.578125 14.660156 14.660156h30c0-24.625-20.035156-44.660156-44.660156-44.660156-25.035157 0-41.332031 21.347656-44.5 42.464844l-9.515625 64.3125h-45.347656v30h40.910156l-29.054688 196.367187-.085937.703125c-.78125 7.800782-6.890625 16.152344-14.734375 16.152344-8.085938 0-14.664063-6.578125-14.664063-14.660156h-30c0 24.625 20.035157 44.660156 44.664063 44.660156 25.050781 0 42.25-21.679688 44.542968-42.777344l29.65625-200.441406h44.441407zm0 0"/><path d="m370.199219 248.308594-25.066407-16.484375-23.277343 35.394531-14.4375-33.140625-27.503907 11.980469 22.257813 51.09375-36.039063 54.800781 25.066407 16.484375 25.28125-38.445312 15.765625 36.191406 27.507812-11.980469-23.589844-54.140625zm0 0"/></g></svg>