<svg height="512pt" viewBox="-15 0 512 512.0025" width="512pt" xmlns="http://www.w3.org/2000/svg"><path d="m303.914062 317.925781-5.308593-27.515625c-.921875-4.789062 2.242187-9.410156 7.042969-10.277344l20.476562-3.691406c8.214844-1.484375 13.636719-9.394531 12.054688-17.59375l-3.941407-20.425781c-.925781-4.789063 2.242188-9.410156 7.042969-10.273437l20.46875-3.691407c8.21875-1.484375 13.640625-9.394531 12.058594-17.59375l-3.945313-20.421875c-.921875-4.789062 2.246094-9.414062 7.042969-10.277344l20.46875-3.691406c8.21875-1.480468 13.640625-9.394531 12.058594-17.59375l-3.945313-20.417968c-.921875-4.789063 2.246094-9.410157 7.046875-10.273438l35.394532-6.378906 22.324218-31.386719c7.113282-10.003906 5.96875-23.683594-2.710937-32.363281l-33.964844-33.96875c-16.808594-16.8125-44.0625-16.8125-60.875 0l-235.753906 235.773437 119.167969 119.179688 43.679687-43.679688c3.515625-3.519531 5.058594-8.554687 4.117187-13.4375zm0 0" fill="#a5b1bd"/><path d="m251.929688 262.320312c-28.078126-28.082031-57.859376-39.46875-77.355469-44.085937l-37.625 37.628906 119.167969 119.179688 32.21875-32.21875c-5.292969-28.644531-15.792969-59.890625-36.40625-80.503907zm0 0" fill="#8697a6"/><path d="m255.414062 373.386719-9.675781-58.585938c-4.113281-24.914062-23.636719-44.441406-48.550781-48.554687l-58.582031-9.679688c-25.585938-4.226562-51.636719 4.144532-69.976563 22.480469l-50.730468 50.738281c-13.890626 13.890625-13.890626 36.414063 0 50.304688l114.003906 114.015625c13.890625 13.890625 36.410156 13.890625 50.300781 0l50.730469-50.738281c18.339844-18.335938 26.707031-44.390626 22.480468-69.980469zm-98.359374 61.3125-79.757813-79.761719 33.605469-33.609375c4.707031-4.707031 11.394531-6.855469 17.960937-5.769531l44.316407 7.320312c8.171874 1.351563 14.578124 7.753906 15.925781 15.929688l7.324219 44.320312c1.082031 6.566406-1.066407 13.253906-5.769532 17.960938zm0 0" fill="#f9ee80"/><path d="m196.429688 383.128906c1.085937 6.566406-1.0625 13.253906-5.769532 17.960938l-33.605468 33.609375-79.757813-79.761719 33.605469-33.609375c4.707031-4.707031 11.394531-6.855469 17.960937-5.769531 0 0-46.007812-16.492188-92.777343-3.960938l-18.1875 18.1875c-13.890626 13.890625-13.890626 36.414063 0 50.304688l114.003906 114.015625c13.890625 13.890625 36.410156 13.890625 50.300781 0l18.1875-18.191407c12.53125-46.773437-3.960937-92.785156-3.960937-92.785156zm0 0" fill="#eedb00"/><path d="m75.890625 356.347656-36.140625 36.140625c-6.570312 6.570313-6.570312 17.226563 0 23.796875l55.960938 55.964844c6.570312 6.574219 17.222656 6.574219 23.796874 0l36.136719-36.140625c6.574219-6.574219 6.574219-17.226563 0-23.800781l-55.957031-55.960938c-6.570312-6.574218-17.226562-6.574218-23.796875 0zm0 0" fill="#6b7d8e"/><path d="m255.152344 197.007812c-8.0625 8.0625-9.394532 19.800782-2.972656 26.21875 6.417968 6.417969 18.15625 5.089844 26.21875-2.972656 8.058593-8.0625 9.390624-19.800781 2.972656-26.21875-6.421875-6.417968-18.160156-5.089844-26.21875 2.972656zm0 0" fill="#ffb3dd"/><path d="m363.28125 88.875c-8.0625 8.0625-9.394531 19.800781-2.972656 26.222656 6.417968 6.417969 18.15625 5.085938 26.21875-2.972656 8.0625-8.0625 9.390625-19.800781 2.972656-26.222656-6.417969-6.417969-18.160156-5.085938-26.21875 2.972656zm0 0" fill="#ffb3dd"/><path d="m322.8125 156.515625c5.046875-5.046875 7.195312-12.234375 5.75-19.226563-.839844-4.054687-4.8125-6.664062-8.867188-5.824218-1.488281.308594-6.980468 2.75-5.824218 8.867187.558594 2.933594-.964844 4.875-1.667969 5.578125s-2.652344 2.273438-5.574219 1.667969c-4.058594-.839844-8.027344 1.765625-8.867187 5.824219-.839844 4.054687 1.769531 8.023437 5.824219 8.863281 6.992187 1.449219 14.179687-.699219 19.226562-5.75zm0 0"/><path d="m252.34375 191.835938c0 4.140624 3.355469 7.5 7.5 7.5 4.140625 0 7.5-3.359376 7.5-7.503907 0-1.214843.617188-2.015625.988281-2.386719.371094-.367187 1.175781-.878906 2.386719-.988281 6.148438-.546875 7.5-5.429687 7.5-7.5 0-4.140625-3.355469-7.5-7.5-7.5-4.90625 0-9.523438 1.910157-12.992188 5.382813-3.472656 3.472656-5.382812 8.085937-5.382812 12.996094zm0 0"/><path d="m365.625 93.542969c0-4.140625-3.355469-7.5-7.5-7.5-4.90625 0-9.523438 1.910156-12.992188 5.382812-3.472656 3.46875-5.382812 8.085938-5.382812 12.992188 0 4.144531 3.359375 7.503906 7.5 7.5 4.140625.003906 7.5-3.355469 7.5-7.5 0-1.214844.621094-2.015625.988281-2.386719.371094-.367188 1.175781-.878906 2.386719-.988281 6.152344-.546875 7.5-5.429688 7.5-7.5zm0 0"/><path d="m263.585938 378.183594 41.515624-41.515625c5.285157-5.289063 7.59375-12.824219 6.175782-20.164063 0 0-5.246094-28.265625-5.109375-28.464844.132812-.195312 21.285156-4.21875 21.285156-4.21875 5.960937-1.074218 11.132813-4.417968 14.558594-9.414062 3.425781-5 4.679687-11.027344 3.53125-16.980469 0 0-3.882813-21.175781-3.746094-21.375.136719-.195312 21.285156-4.214843 21.285156-4.214843 5.960938-1.078126 11.132813-4.421876 14.558594-9.417969 3.425781-5 4.679687-11.027344 3.53125-16.976563 0 0-3.882813-21.175781-3.746094-21.371094.136719-.199218 21.28125-4.21875 21.28125-4.21875 5.960938-1.074218 11.132813-4.417968 14.558594-9.417968s4.679687-11.027344 3.53125-16.976563c0 0-3.882813-21.171875-3.746094-21.367187.136719-.195313 36.210938-6.902344 36.210938-6.902344 1.929687-.351562 3.644531-1.4375 4.78125-3.035156l4.183593-5.886719c2.402344-3.375 1.703126-8.179687-1.765624-10.460937-7.597657-4.992188-12.871094 5.15625-12.871094 5.15625l-32.386719 5.839843c-4.3125.773438-8.050781 3.191407-10.527344 6.804688-2.476562 3.617187-3.382812 7.972656-2.550781 12.273437l3.941406 20.417969c.382813 1.984375-.035156 3.988281-1.175781 5.652344-1.140625 1.667969-2.863281 2.78125-4.847656 3.136719l-20.46875 3.691406c-4.308594.777344-8.046875 3.195312-10.523438 6.808594-2.476562 3.613281-3.382812 7.972656-2.554687 12.269531l3.945312 20.425781c.378906 1.980469-.035156 3.988281-1.175781 5.652344-1.140625 1.664062-2.863281 2.777344-4.847656 3.136718l-20.472657 3.691407c-4.308593.777343-8.046874 3.195312-10.523437 6.808593-2.476563 3.613282-3.382813 7.96875-2.550781 12.269532l3.941406 20.425781c.382812 1.980469-.035156 3.988281-1.175781 5.652344-1.140625 1.664062-2.859375 2.777343-4.847657 3.136719l-20.472656 3.691406c-4.308594.78125-8.046875 3.199218-10.523437 6.8125-2.476563 3.609375-3.382813 7.96875-2.550781 12.269531l5.308593 27.515625c.46875 2.445312-.300781 4.953125-2.058593 6.714844l-33.722657 33.722656-7.632812-46.207031c-4.640625-28.097657-26.636719-50.089844-54.726563-54.734375l-46.207031-7.632813 225.804687-225.816406c13.855469-13.863281 36.40625-13.863281 50.265626 0l33.964843 33.964844c6.113281 6.113281 6.914063 15.667969 1.902344 22.714843-2.402344 3.375-1.613281 8.058594 1.761719 10.460938 3.378906 2.398438 8.058594 1.609375 10.460937-1.765625 9.269531-13.035156 7.789063-30.707031-3.519531-42.019531l-33.960938-33.964844c-19.707031-19.707031-51.777343-19.707031-71.484374 0l-233.589844 233.609375c-25.949219-2.453125-51.917969 6.789063-70.484375 25.351563l-28.71875 28.726562c-2.929688 2.929688-2.929688 7.675781 0 10.605469 2.925781 2.929687 7.675781 2.929687 10.605469 0l28.722656-28.722657c16.585937-16.589843 40.304687-24.207031 63.449218-20.386718l58.582032 9.679687c21.75 3.589844 38.777344 20.621094 42.371094 42.375l9.679687 58.585938c3.820313 23.148437-3.796875 46.867187-20.382813 63.457031l-50.734374 50.734375c-10.941407 10.945313-28.746094 10.945313-39.691407 0l-11.820312-11.820313 70.574219-70.582031c6.402343-6.402343 9.34375-15.558593 7.867187-24.488281l-7.320313-44.324219c-1.875-11.347656-10.757812-20.230469-22.105468-22.105469l-44.316406-7.320312c-8.933594-1.476562-18.085938 1.464844-24.484376 7.867188l-70.578124 70.582031-11.820313-11.820313c-10.945313-10.945312-10.945313-28.753906 0-39.699218 2.929687-2.925782 2.929687-7.675782 0-10.605469-2.929687-2.929688-7.679687-2.929688-10.609375 0-16.789062 16.792969-16.789062 44.117187 0 60.910156l15.0625 15.0625c-1.210938 7.464844 1.046875 15.390625 6.789062 21.136719l55.960938 55.964844c5.742188 5.742187 13.667969 8.003906 21.132812 6.789062l15.0625 15.0625c16.789063 16.792969 44.113282 16.792969 60.90625 0l50.730469-50.734375c18.5625-18.5625 27.804688-44.539063 25.347657-70.488281zm-135.945313-55.226563 44.320313 7.320313c5 .828125 8.921874 4.746094 9.746093 9.75l7.320313 44.324218c.691406 4.171876-.683594 8.445313-3.671875 11.433594l-19.128907 19.132813c-1.1875-2.878907-2.945312-5.578125-5.277343-7.914063l-55.960938-55.964844c-2.335937-2.335937-5.03125-4.089843-7.910156-5.277343l19.128906-19.132813c2.988281-2.984375 7.265625-4.359375 11.433594-3.671875zm-13.4375 143.988281c-3.636719 3.636719-9.554687 3.636719-13.191406 0l-55.957031-55.960937c-3.636719-3.636719-3.636719-9.554687 0-13.191406l36.140624-36.144531c3.632813-3.636719 9.550782-3.632813 13.1875 0l55.960938 55.964843c3.636719 3.636719 3.636719 9.554688 0 13.191407zm0 0"/></svg>