<svg height="496pt" viewBox="-22 0 496 496.968" width="496pt" xmlns="http://www.w3.org/2000/svg"><path d="m315.125 214.511719 21.359375 26.640625-24 24-26.640625-21.359375zm0 0" fill="#969faa"/><path d="m201.925781 322.59375 70.558594-65.441406-74.160156-74.160156c-3.761719-3.761719-8.800781-5.839844-14.160157-5.839844-4.960937 0-9.679687 1.839844-13.359374 5.199218l-23.679688 21.441407-100.800781 91.199219-.082031-.082032-25.519532 23.121094c-7.757812 7.121094-12.238281 17.121094-12.238281 27.679688 0 9.921874 3.917969 19.359374 10.960937 26.402343l111.117188 111.117188c3.761719 3.761719 8.960938 5.839843 14.242188 5.761719 4.960937-.160157 9.679687-2.082032 13.199218-5.519532l36.480469-35.28125c3.839844-3.679687 6-8.800781 6-14.078125v-.882812c0-5.199219-2.082031-10.160157-5.761719-13.839844l-26-26c-5.277344-5.277344-8.238281-12.480469-8.238281-19.917969 0-7.839844 3.28125-15.359375 9.039063-20.71875zm0 0" fill="#5cd6b3"/><path d="m376.484375 249.152344-56 56-24-24 56-56zm0 0" fill="#d3a06c"/><path d="m328.476562 297.15625 40-40 72 72-40 40zm0 0" fill="#b27946"/><path d="m256.480469 129.152344 24.003906-24.003906 64 64-24 24.003906zm0 0" fill="#969faa"/><g fill="#e6e9ed"><path d="m315.125 214.511719-42.640625 42.640625-72-72 56-56 72 72zm0 0"/><path d="m368.484375 129.152344-24 40-64-64 40-24zm0 0"/><path d="m112.484375 313.152344-10.320313 10.320312c-3.679687 3.679688-8.558593 5.679688-13.679687 5.679688s-10-2-13.679687-5.679688l-28.5625-28.5625 25.203124-22.796875zm0 0"/><path d="m160.484375 265.152344-24 24-39.761719-39.761719 25.203125-22.796875zm0 0"/></g><path d="m170.804688 227.472656c3.679687 3.679688 5.679687 8.558594 5.679687 13.679688s-2 10-5.679687 13.679687l-10.320313 10.320313-38.558594-38.558594 25.199219-22.800781zm0 0" fill="#ccd1d9"/><path d="m136.484375 289.152344-24 24-41.039063-41.039063 25.277344-22.722656zm0 0" fill="#ccd1d9"/><path d="m219.203125 339.871094c3.359375 3.359375 5.28125 8 5.28125 12.800781 0 5.359375-2.398437 10.480469-6.558594 13.921875l-41.441406 34.558594-7.761719-7.761719c-5.277344-5.277344-8.238281-12.480469-8.238281-19.917969 0-7.839844 3.28125-15.359375 9.039063-20.71875l32.402343-30.160156zm0 0" fill="#fcd770"/><path d="m72.484375 377.152344c26.480469 0 48 21.519531 48 48 0 13.28125-5.359375 25.28125-14.082031 33.917968l-67.839844-67.839843c8.640625-8.71875 20.640625-14.078125 33.921875-14.078125zm0 0" fill="#fcd770"/><path d="m440.484375 17.152344-8 24-76 76-24-24 76-76 24-8zm0 0" fill="#969faa"/><path d="m451.796875 329.152344-72-72 8-8-35.3125-35.3125-15.335937 15.335937-11.28125-14.097656 13.929687-13.925781-8-8 18.34375-18.34375 28.414063-46.898438-10.757813-10.757812 71.679687-71.679688 10.160157-30.480468-14.992188-14.992188-30.480469 10.160156-71.679687 71.679688-10.761719-10.761719-45.351562 27.21875-19.847656 19.582031-.039063-.039062-56.367187 56.367187c-10.394532-7-25.273438-6.367187-34.722657 2.183594l-150.007812 135.722656c-9.472657 8.566407-14.902344 20.816407-14.902344 33.589844 0 12.097656 4.710937 23.480469 13.273437 32.03125l111.167969 111.167969c5.148438 5.152344 12.214844 8.066406 19.484375 8.066406.210938 0 .410156 0 .617188-.007812 6.945312-.152344 13.527344-2.898438 18.519531-7.730469l36.527344-35.285157c5.347656-5.160156 8.410156-12.386718 8.410156-19.816406v-.871094c0-7.363281-2.863281-14.28125-8.074219-19.480468l-12.078125-12.082032 34.742188-28.953124c5.984375-4.988282 9.410156-12.300782 9.410156-20.085938 0-6.976562-2.71875-13.535156-7.65625-18.472656l-11.335937-11.335938 70.519531-65.480468-.214844-.214844 2.613281-2.617188 14.097656 11.28125-15.335937 15.335938 35.3125 35.3125 8-8 72 72zm-38.992187-305.007813 17.519531-5.839843 1.007812 1.007812-5.839843 17.519531-69.007813 69.007813-12.6875-12.6875zm-54.394532 106.246094-15.511718 25.867187-49.511719-49.515624 25.867187-15.511719zm-77.925781-13.925781 52.6875 52.6875-12.6875 12.6875-52.6875-52.6875zm-168 185.375-29.398437-29.398438 13.316406-12.058594 28.769531 28.769532zm-11.3125 11.3125-4.6875 4.6875c-4.207031 4.207031-11.792969 4.207031-16 0l-22.601563-22.601563 13.320313-12.054687zm35.3125-35.3125-28.199219-28.199219 13.320313-12.054687 27.566406 27.566406zm28.6875-28.6875-4.6875 4.6875-27-27 13.320313-12.054688 18.367187 18.367188c2.105469 2.105468 3.3125 5.023437 3.3125 8 0 2.976562-1.207031 5.894531-3.3125 8zm-59.320313 198.054687-55.421874-55.421875c6.484374-4.3125 14.085937-6.632812 22.054687-6.632812 22.054687 0 40 17.945312 40 40 0 7.96875-2.320313 15.566406-6.632813 22.054687zm107.664063-101.710937c1.914063 1.917968 2.96875 4.464844 2.96875 7.160156 0 3.015625-1.328125 5.847656-3.648437 7.785156l-35.863282 29.886719-2.570312-2.566406c-3.8125-3.816407-5.917969-8.898438-5.917969-14.296875 0-5.609375 2.351563-11.007813 6.464844-14.824219l26.816406-24.898437zm-49.457031 1.414062c-7.359375 6.832032-11.574219 16.515625-11.574219 26.554688 0 9.671875 3.769531 18.773437 10.609375 25.613281l26.007812 26.011719c2.183594 2.175781 3.382813 5.070312 3.382813 8.15625v.875c0 3.117187-1.289063 6.152344-3.527344 8.3125l-36.535156 35.285156c-2.089844 2.023438-4.851563 3.167969-7.761719 3.242188-3.183594-.050782-6.214844-1.160157-8.433594-3.375l-18.933593-18.9375c7.222656-9.632813 11.191406-21.25 11.191406-33.496094 0-30.878906-25.121094-56-56-56-12.25 0-23.863281 3.96875-33.496094 11.191406l-13.921875-13.917969c-5.535156-5.539062-8.582031-12.898437-8.582031-20.722656 0-8.261719 3.511719-16.183594 9.640625-21.71875l19.886719-17.992187 23.160156 23.160156c5.160156 5.160156 12.015625 8 19.3125 8s14.160156-2.839844 19.3125-8l68.6875-68.6875c5.160156-5.160156 8-12.015625 8-19.3125s-2.839844-14.160156-8-19.3125l-17.800781-17.800782 17.449218-15.78125c2.214844-2 5.078126-3.105468 8.0625-3.105468 3.207032 0 6.226563 1.246094 8.496094 3.519531l68.265625 68.265625zm47.738281-161.757812 44.6875-44.6875 60.6875 60.6875-44.6875 44.6875zm85.992187 58.007812 16.695313-16.695312 11.28125 14.09375-13.875 13.875zm10.007813 37.992188 44.6875-44.6875 12.6875 12.6875-44.6875 44.6875zm60.6875-12.6875 60.6875 60.6875-28.6875 28.6875-60.6875-60.6875zm0 0" fill="#1e1713"/></svg>